<svg width="50" height="49" viewBox="0 0 50 49" fill="none" xmlns="http://www.w3.org/2000/svg">
<g clip-path="url(#clip0_1_128)">
<path d="M8.85417 0H41.1458C46.0417 0 50 3.97863 50 8.89957V40.1004C50 45.0214 46.0417 49 41.1458 49H8.85417C3.95833 49 0 45.0214 0 40.1004V8.89957C0 3.97863 3.95833 0 8.85417 0Z" fill="#001E36"/>
<path d="M11.25 34.3629V12.8155C11.25 12.6689 11.3125 12.5851 11.4583 12.5851C11.8125 12.5851 12.1458 12.5851 12.625 12.5642C13.125 12.5432 13.6458 12.5432 14.2083 12.5223C14.7708 12.5014 15.375 12.5014 16.0208 12.4804C16.6667 12.4595 17.2917 12.4595 17.9167 12.4595C19.625 12.4595 21.0417 12.6689 22.2083 13.1086C23.25 13.4646 24.2083 14.0509 25 14.8257C25.6667 15.4958 26.1875 16.3125 26.5208 17.2129C26.8333 18.0924 27 18.9928 27 19.9351C27 21.736 26.5833 23.2227 25.75 24.3954C24.9167 25.568 23.75 26.4475 22.3958 26.9501C20.9792 27.4736 19.4167 27.662 17.7083 27.662C17.2083 27.662 16.875 27.662 16.6667 27.6411C16.4583 27.6202 16.1667 27.6202 15.7708 27.6202V34.3419C15.7917 34.4885 15.6875 34.6142 15.5417 34.6351C15.5208 34.6351 15.5 34.6351 15.4583 34.6351H11.5C11.3333 34.6351 11.25 34.5514 11.25 34.3629ZM15.7917 16.6266V23.6625C16.0833 23.6834 16.3542 23.7043 16.6042 23.7043H17.7083C18.5208 23.7043 19.3333 23.5787 20.1042 23.3274C20.7708 23.139 21.3542 22.7411 21.8125 22.2176C22.25 21.6941 22.4583 20.9821 22.4583 20.0608C22.4792 19.4116 22.3125 18.7625 21.9792 18.1971C21.625 17.6526 21.125 17.2338 20.5208 17.0035C19.75 16.6894 18.9167 16.5637 18.0625 16.5847C17.5208 16.5847 17.0417 16.5847 16.6458 16.6056C16.2292 16.5847 15.9375 16.6056 15.7917 16.6266Z" fill="#31A8FF"/>
<path d="M40 22.3851C39.375 22.05 38.7083 21.8197 38 21.6731C37.2292 21.5056 36.4583 21.4009 35.6667 21.4009C35.25 21.3799 34.8125 21.4428 34.4167 21.5475C34.1458 21.6103 33.9167 21.7569 33.7708 21.9663C33.6667 22.1338 33.6042 22.3432 33.6042 22.5316C33.6042 22.7201 33.6875 22.9086 33.8125 23.0761C34 23.3064 34.25 23.4949 34.5208 23.6415C35 23.8928 35.5 24.1231 36 24.3325C37.125 24.7094 38.2083 25.2329 39.2083 25.8611C39.8958 26.3009 40.4583 26.8872 40.8542 27.5992C41.1875 28.2693 41.3542 29.0022 41.3333 29.756C41.3542 30.7402 41.0625 31.7244 40.5208 32.541C39.9375 33.3787 39.125 34.0278 38.1875 34.4047C37.1667 34.8445 35.9167 35.0748 34.4167 35.0748C33.4583 35.0748 32.5208 34.991 31.5833 34.8026C30.8542 34.6769 30.125 34.4466 29.4583 34.1325C29.3125 34.0487 29.2083 33.9022 29.2292 33.7346V30.091C29.2292 30.0282 29.25 29.9445 29.3125 29.9026C29.375 29.8607 29.4375 29.8816 29.5 29.9235C30.3125 30.4052 31.1667 30.7402 32.0833 30.9496C32.875 31.159 33.7083 31.2637 34.5417 31.2637C35.3333 31.2637 35.8958 31.159 36.2708 30.9705C36.6042 30.824 36.8333 30.468 36.8333 30.091C36.8333 29.7979 36.6667 29.5257 36.3333 29.2534C36 28.9812 35.3125 28.6671 34.2917 28.2693C33.2292 27.8923 32.25 27.3898 31.3333 26.7616C30.6875 26.3009 30.1458 25.6936 29.75 24.9816C29.4167 24.3116 29.25 23.5787 29.2708 22.8457C29.2708 21.9453 29.5208 21.0868 29.9792 20.312C30.5 19.4744 31.2708 18.8043 32.1667 18.3855C33.1458 17.8829 34.375 17.6526 35.8542 17.6526C36.7083 17.6526 37.5833 17.7154 38.4375 17.841C39.0625 17.9248 39.6667 18.0923 40.2292 18.3227C40.3125 18.3436 40.3958 18.4274 40.4375 18.5111C40.4583 18.5949 40.4792 18.6787 40.4792 18.7624V22.1757C40.4792 22.2594 40.4375 22.3432 40.375 22.3851C40.1875 22.4269 40.0833 22.4269 40 22.3851Z" fill="#31A8FF"/>
</g>
<defs>
<clipPath id="clip0_1_128">
<rect width="50" height="49" fill="white"/>
</clipPath>
</defs>
</svg>
