<svg width="122" height="81" viewBox="0 0 122 81" fill="none" xmlns="http://www.w3.org/2000/svg">
<path d="M84.4788 53.9999C84.8569 53.3477 85.0918 52.6129 85.0918 51.953V29.0468C85.0918 28.3869 84.8572 27.6522 84.479 27L61 40.5L84.4788 53.9999Z" fill="#00599C"/>
<path d="M63.0864 67.005L83.0055 55.552C83.5793 55.222 84.1008 54.6523 84.4788 54L61 40.5L37.5212 54.0001C37.8992 54.6523 38.4209 55.2222 38.9946 55.552L58.9136 67.005C60.0611 67.6649 61.939 67.6649 63.0864 67.005Z" fill="#004482"/>
<path d="M84.479 27C84.1008 26.3476 83.5791 25.7779 83.0055 25.4479L63.0864 13.9949C61.939 13.335 60.0611 13.335 58.9136 13.9949L38.9946 25.4479C37.847 26.1077 36.9082 27.7273 36.9082 29.0469V51.9531C36.9082 52.613 37.1429 53.3478 37.5212 54L61 40.5001L84.479 27Z" fill="#659AD2"/>
<path d="M61 56.4954C52.1438 56.4954 44.9388 49.3199 44.9388 40.5C44.9388 31.6801 52.1438 24.5046 61 24.5046C66.7147 24.5046 72.0443 27.5673 74.9089 32.4973L67.958 36.5031C66.5243 34.0354 63.858 32.5023 61 32.5023C56.5718 32.5023 52.9694 36.09 52.9694 40.5C52.9694 44.9099 56.5718 48.4977 61 48.4977C63.8583 48.4977 66.5246 46.9647 67.9585 44.4965L74.9093 48.5021C72.0448 53.4326 66.715 56.4954 61 56.4954Z" fill="white"/>
<path d="M75.2765 37.8342H73.4922V39.6114H71.7075V41.3887H73.4922V43.166H75.2765V41.3887H77.0612V39.6114H75.2765V37.8342ZM81.9687 37.8342H80.1844V39.6114H78.3997V41.3887H80.1844V43.166H81.9687V41.3887H83.7534V39.6114H81.9687V37.8342Z" fill="white"/>
</svg>
