<svg width="1440" height="53" viewBox="0 0 1440 53" fill="none" xmlns="http://www.w3.org/2000/svg">
<path d="M424.698 12.1432H437.576V15.2677H424.698V12.1432ZM411.793 24.5054C414.64 23.1433 416.131 21.0711 416.131 17.8692C416.131 11.5364 411.419 10 405.977 10H391V41.7867H406.396C412.167 41.7867 417.584 39.0109 417.584 32.5554C417.584 28.5659 415.699 25.6158 411.793 24.5054ZM397.985 15.4226H404.537C407.061 15.4226 409.327 16.1262 409.327 19.057C409.327 21.7554 407.565 22.8399 405.066 22.8399H397.985V15.4226ZM405.441 36.39H397.978V27.6363H405.589C408.662 27.6363 410.605 28.921 410.605 32.1745C410.605 35.3764 408.288 36.39 405.441 36.39ZM442.611 30.6123C442.611 23.8018 438.628 18.1274 431.424 18.1274C424.42 18.1274 419.656 23.4016 419.656 30.3154C419.656 37.4809 424.168 42.4 431.424 42.4C436.918 42.4 440.475 39.9276 442.185 34.6534H436.614C436.008 36.6224 433.542 37.6552 431.624 37.6552C427.919 37.6552 425.982 35.4862 425.982 31.8001H442.566C442.586 31.4192 442.611 31.019 442.611 30.6123ZM425.982 27.8106C426.182 24.783 428.203 22.8916 431.224 22.8916C434.4 22.8916 435.988 24.7572 436.266 27.8106H425.982Z" fill="#0B0B0B"/>
<path d="M628.609 15.5519C629.802 15.5519 630.769 14.5849 630.769 13.3919C630.769 12.199 629.802 11.2319 628.609 11.2319C627.416 11.2319 626.449 12.199 626.449 13.3919C626.449 14.5849 627.416 15.5519 628.609 15.5519Z" fill="#0B0B0B"/>
<path d="M619 13.7564C617.172 13.7564 615.385 14.2985 613.865 15.3141C612.345 16.3298 611.16 17.7733 610.46 19.4623C609.761 21.1512 609.578 23.0097 609.934 24.8026C610.291 26.5956 611.171 28.2425 612.464 29.5352C613.757 30.8279 615.403 31.7082 617.196 32.0648C618.989 32.4215 620.848 32.2384 622.537 31.5388C624.226 30.8393 625.669 29.6546 626.685 28.1346C627.701 26.6145 628.243 24.8275 628.243 22.9994C628.243 20.548 627.269 18.197 625.535 16.4636C623.802 14.7302 621.451 13.7564 619 13.7564ZM619 28.9994C617.813 28.9994 616.653 28.6475 615.666 27.9882C614.68 27.3289 613.911 26.3919 613.456 25.2955C613.002 24.1992 612.883 22.9928 613.115 21.8289C613.346 20.665 613.918 19.5959 614.757 18.7568C615.596 17.9177 616.665 17.3462 617.829 17.1147C618.993 16.8832 620.199 17.002 621.296 17.4561C622.392 17.9103 623.329 18.6793 623.988 19.666C624.648 20.6527 625 21.8127 625 22.9994C625 24.5907 624.368 26.1168 623.242 27.2421C622.117 28.3673 620.591 28.9994 619 28.9994Z" fill="#0B0B0B"/>
<path d="M619 8.243C623.806 8.243 624.376 8.261 626.274 8.348C627.415 8.36155 628.545 8.5711 629.615 8.9675C630.392 9.26704 631.097 9.72582 631.686 10.3143C632.274 10.9028 632.733 11.608 633.033 12.3845C633.429 13.4548 633.638 14.5852 633.652 15.7265C633.739 17.624 633.757 18.194 633.757 23.0015C633.757 27.809 633.739 28.376 633.652 30.2735C633.638 31.4148 633.429 32.5452 633.033 33.6155C632.733 34.392 632.274 35.0972 631.686 35.6857C631.097 36.2742 630.392 36.733 629.615 37.0325C628.545 37.4289 627.415 37.6385 626.274 37.652C624.376 37.739 623.806 37.757 619 37.757C614.194 37.757 613.624 37.739 611.726 37.652C610.585 37.6385 609.455 37.4289 608.385 37.0325C607.608 36.733 606.903 36.2742 606.314 35.6857C605.726 35.0972 605.267 34.392 604.967 33.6155C604.571 32.5452 604.362 31.4148 604.348 30.2735C604.261 28.376 604.243 27.806 604.243 23C604.243 18.194 604.261 17.624 604.348 15.7265C604.362 14.5852 604.571 13.4548 604.967 12.3845C605.267 11.608 605.726 10.9028 606.314 10.3143C606.903 9.72582 607.608 9.26704 608.385 8.9675C609.455 8.5711 610.585 8.36155 611.726 8.348C613.624 8.261 614.194 8.243 619 8.243ZM619 5C614.111 5 613.498 5.021 611.578 5.108C610.085 5.13814 608.608 5.42115 607.21 5.945C606.014 6.40745 604.928 7.11467 604.021 8.02133C603.115 8.92799 602.407 10.0141 601.945 11.21C601.421 12.6087 601.138 14.0862 601.108 15.5795C601.021 17.4995 601 18.11 601 23C601 27.89 601.021 28.502 601.108 30.422C601.138 31.9148 601.421 33.3918 601.945 34.79C602.407 35.9859 603.115 37.072 604.021 37.9787C604.928 38.8853 606.014 39.5926 607.21 40.055C608.609 40.579 610.086 40.862 611.58 40.892C613.5 40.979 614.111 41 619 41C623.889 41 624.502 40.979 626.422 40.892C627.915 40.862 629.393 40.579 630.792 40.055C631.987 39.5926 633.074 38.8853 633.98 37.9787C634.887 37.072 635.594 35.9859 636.056 34.79C636.58 33.3912 636.863 31.9138 636.892 30.4205C636.979 28.5005 637 27.89 637 23C637 18.11 636.979 17.498 636.892 15.578C636.862 14.0852 636.579 12.6082 636.055 11.21C635.593 10.0141 634.885 8.92799 633.979 8.02133C633.072 7.11467 631.986 6.40745 630.79 5.945C629.391 5.4215 627.914 5.13899 626.421 5.1095C624.501 5.0195 623.89 5 619 5Z" fill="#0B0B0B"/>
<path d="M810.55 41V16.7109H802.476V41H810.55ZM806.514 13.3926C809.329 13.3926 811.082 11.5275 811.082 9.1967C811.029 6.81335 809.329 5 806.567 5C803.806 5 802 6.81339 802 9.1967C802 11.5276 803.752 13.3926 806.461 13.3926H806.514H806.514ZM815.018 41H823.091V27.4358C823.091 26.7098 823.144 25.9846 823.357 25.4657C823.941 24.0153 825.269 22.5131 827.499 22.5131C830.42 22.5131 831.589 24.7405 831.589 28.0057V40.9998H839.662V27.0727C839.662 19.612 835.679 16.1406 830.367 16.1406C826.012 16.1406 824.1 18.575 823.038 20.2331H823.091V16.7104H815.018C815.124 18.9895 815.018 40.9995 815.018 40.9995L815.018 41Z" fill="#0B0B0B"/>
<path d="M1012.4 15.3884C1011.92 14.1138 1011.94 12.6575 1012.15 11.325C1013.64 11.7824 1015.04 12.5061 1016.28 13.4626C1016.83 13.8901 1017.54 14.0279 1018.21 13.8222C1019.92 13.2976 1021.69 13.0338 1023.47 13.0391C1025.35 13.0391 1027.12 13.3187 1028.74 13.8202C1029.4 14.0279 1030.12 13.8881 1030.66 13.4606C1031.9 12.5043 1033.3 11.7807 1034.79 11.323C1035 12.6555 1035.02 14.1118 1034.54 15.3844C1034.25 16.1515 1034.39 17.0345 1034.94 17.6617C1036.35 19.2659 1037.11 21.1098 1037.11 23.0276C1037.11 27.2507 1033.27 31.392 1027.11 32.6525C1025.57 32.9681 1024.96 34.9598 1026.14 36.1005C1026.9 36.8317 1027.37 37.8625 1027.37 39.0092V45.0023C1027.37 45.5321 1027.57 46.0402 1027.94 46.4149C1028.3 46.7895 1028.8 47 1029.32 47C1029.83 47 1030.33 46.7895 1030.69 46.4149C1031.06 46.0402 1031.26 45.5321 1031.26 45.0023V39.0092C1031.26 37.8705 1031.03 36.7877 1030.61 35.8069C1036.49 33.7153 1041 29.0067 1041 23.0276C1041 20.3367 1040.06 17.8635 1038.49 15.7919C1038.9 14.1538 1038.87 12.5037 1038.71 11.2371C1038.57 10.1024 1038.38 8.61614 1037.6 7.72916C1036.44 6.41268 1034.52 7.18778 1033.16 7.66524C1031.7 8.17283 1030.31 8.87466 1029.02 9.75284C1027.21 9.27821 1025.34 9.03993 1023.47 9.04365C1021.54 9.04365 1019.67 9.29336 1017.92 9.75483C1016.64 8.87664 1015.25 8.17481 1013.78 7.66723C1012.42 7.18779 1010.5 6.41268 1009.34 7.72916C1008.55 8.63212 1008.38 10.0006 1008.24 11.1632L1008.23 11.2391C1008.07 12.5077 1008.04 14.1598 1008.45 15.7999C1006.89 17.8695 1005.95 20.3387 1005.95 23.0276C1005.95 29.0047 1010.46 33.7153 1016.33 35.8069C1015.91 36.8043 1015.69 37.8806 1015.68 38.9692L1015.36 39.0372C1013.96 39.2349 1013.07 39.0571 1012.46 38.7934C1010.98 38.1502 1010.22 36.53 1009.29 35.2915C1008.71 34.5224 1007.86 33.5615 1006.56 33.118C1006.32 33.0351 1006.06 33.002 1005.81 33.0207C1005.55 33.0394 1005.3 33.1094 1005.08 33.2269C1004.61 33.464 1004.26 33.8797 1004.1 34.3825C1003.94 34.8853 1003.97 35.434 1004.21 35.908C1004.44 36.3819 1004.84 36.7422 1005.33 36.9096C1006.42 37.2812 1007.17 39.191 1007.86 40.038C1008.59 40.933 1009.55 41.8679 1010.94 42.4712C1012.26 43.0505 1013.82 43.2563 1015.68 43.0226V45.0023C1015.68 45.5321 1015.89 46.0402 1016.25 46.4149C1016.62 46.7895 1017.12 47 1017.63 47C1018.15 47 1018.64 46.7895 1019.01 46.4149C1019.37 46.0402 1019.58 45.5321 1019.58 45.0023V39.0092C1019.58 37.8625 1020.05 36.8317 1020.8 36.1005C1021.99 34.9579 1021.38 32.9681 1019.84 32.6525C1013.68 31.392 1009.84 27.2507 1009.84 23.0276C1009.84 21.1138 1010.59 19.2699 1012 17.6657C1012.55 17.0385 1012.7 16.1555 1012.4 15.3884Z" fill="black"/>
</svg>
