<svg width="161" height="67" viewBox="0 0 161 67" fill="none" xmlns="http://www.w3.org/2000/svg">
<rect x="9" y="9" width="152" height="58" fill="url(#paint0_linear_511_2)"/>
<rect width="152" height="58" fill="black"/>
<path d="M34.301 22.4H36.128L40.709 35H39.107L38.171 32.426H32.258L31.331 35H29.72L34.301 22.4ZM32.816 30.914H37.613L35.21 24.335L32.816 30.914ZM46.9035 25.748C47.7795 25.748 48.5745 25.961 49.2885 26.387C50.0085 26.813 50.5815 27.386 51.0075 28.106C51.4335 28.82 51.6465 29.615 51.6465 30.491C51.6465 31.145 51.5235 31.76 51.2775 32.336C51.0315 32.906 50.6895 33.41 50.2515 33.848C49.8195 34.28 49.3155 34.619 48.7395 34.865C48.1695 35.111 47.5575 35.234 46.9035 35.234C46.2075 35.234 45.6015 35.072 45.0855 34.748C44.5755 34.418 44.1675 33.989 43.8615 33.461V35H42.3495V21.5H43.8615V27.521C44.1675 26.993 44.5755 26.567 45.0855 26.243C45.6015 25.913 46.2075 25.748 46.9035 25.748ZM46.8855 33.758C47.4795 33.758 48.0195 33.611 48.5055 33.317C48.9915 33.023 49.3785 32.63 49.6665 32.138C49.9545 31.64 50.0985 31.091 50.0985 30.491C50.0985 29.879 49.9515 29.327 49.6575 28.835C49.3635 28.337 48.9735 27.944 48.4875 27.656C48.0015 27.362 47.4675 27.215 46.8855 27.215C46.2975 27.215 45.7845 27.362 45.3465 27.656C44.9145 27.95 44.5785 28.346 44.3385 28.844C44.1045 29.342 43.9875 29.891 43.9875 30.491C43.9875 31.097 44.1045 31.649 44.3385 32.147C44.5785 32.639 44.9175 33.032 45.3555 33.326C45.7935 33.614 46.3035 33.758 46.8855 33.758ZM57.0498 35.234C56.2218 35.234 55.4658 35.021 54.7818 34.595C54.1038 34.169 53.5608 33.599 53.1528 32.885C52.7508 32.165 52.5498 31.37 52.5498 30.5C52.5498 29.84 52.6668 29.225 52.9008 28.655C53.1348 28.079 53.4558 27.575 53.8638 27.143C54.2778 26.705 54.7578 26.363 55.3038 26.117C55.8498 25.871 56.4318 25.748 57.0498 25.748C57.8778 25.748 58.6308 25.961 59.3088 26.387C59.9928 26.813 60.5358 27.386 60.9378 28.106C61.3458 28.826 61.5498 29.624 61.5498 30.5C61.5498 31.154 61.4328 31.766 61.1988 32.336C60.9648 32.906 60.6408 33.41 60.2268 33.848C59.8188 34.28 59.3418 34.619 58.7958 34.865C58.2558 35.111 57.6738 35.234 57.0498 35.234ZM57.0498 33.722C57.6138 33.722 58.1208 33.575 58.5708 33.281C59.0268 32.981 59.3838 32.588 59.6418 32.102C59.9058 31.61 60.0378 31.076 60.0378 30.5C60.0378 29.912 59.9028 29.372 59.6328 28.88C59.3688 28.388 59.0118 27.995 58.5618 27.701C58.1118 27.407 57.6078 27.26 57.0498 27.26C56.4858 27.26 55.9788 27.41 55.5288 27.71C55.0788 28.004 54.7218 28.397 54.4578 28.889C54.1938 29.381 54.0618 29.918 54.0618 30.5C54.0618 31.1 54.1968 31.646 54.4668 32.138C54.7368 32.624 55.0998 33.011 55.5558 33.299C56.0118 33.581 56.5098 33.722 57.0498 33.722ZM62.5559 31.58V26H64.0679V31.247C64.0679 31.703 64.1789 32.117 64.4009 32.489C64.6229 32.861 64.9199 33.158 65.2919 33.38C65.6699 33.596 66.0839 33.704 66.5339 33.704C66.9899 33.704 67.4009 33.596 67.7669 33.38C68.1389 33.158 68.4359 32.861 68.6579 32.489C68.8799 32.117 68.9909 31.703 68.9909 31.247V26H70.5029L70.5119 35H68.9999L68.9909 33.857C68.6729 34.277 68.2709 34.613 67.7849 34.865C67.2989 35.111 66.7739 35.234 66.2099 35.234C65.5379 35.234 64.9229 35.072 64.3649 34.748C63.8129 34.418 63.3719 33.977 63.0419 33.425C62.7179 32.873 62.5559 32.258 62.5559 31.58ZM76.9822 27.512H74.9392L74.9302 35H73.4182L73.4272 27.512H71.8792V26H73.4272L73.4182 23.174H74.9302L74.9392 26H76.9822V27.512ZM82.9198 35L85.3588 22.4H86.5198L89.9218 31.346L93.3148 22.4H94.4758L96.9238 35H95.3848L93.6118 25.856L90.4168 34.316H89.4178L86.2228 25.856L84.4588 35H82.9198ZM102.261 35.234C101.433 35.234 100.677 35.021 99.9927 34.595C99.3147 34.169 98.7717 33.599 98.3637 32.885C97.9617 32.165 97.7607 31.37 97.7607 30.5C97.7607 29.84 97.8777 29.225 98.1117 28.655C98.3457 28.079 98.6667 27.575 99.0747 27.143C99.4887 26.705 99.9687 26.363 100.515 26.117C101.061 25.871 101.643 25.748 102.261 25.748C102.939 25.748 103.56 25.886 104.124 26.162C104.694 26.432 105.18 26.81 105.582 27.296C105.99 27.782 106.293 28.346 106.491 28.988C106.695 29.63 106.77 30.317 106.716 31.049H99.3717C99.4437 31.559 99.6117 32.015 99.8757 32.417C100.14 32.813 100.476 33.128 100.884 33.362C101.298 33.596 101.757 33.716 102.261 33.722C102.801 33.722 103.29 33.584 103.728 33.308C104.166 33.026 104.52 32.642 104.79 32.156L106.329 32.516C105.969 33.314 105.426 33.968 104.7 34.478C103.974 34.982 103.161 35.234 102.261 35.234ZM99.3267 29.861H105.195C105.147 29.357 104.985 28.898 104.709 28.484C104.433 28.064 104.082 27.728 103.656 27.476C103.23 27.224 102.765 27.098 102.261 27.098C101.757 27.098 101.295 27.221 100.875 27.467C100.455 27.713 100.107 28.046 99.8307 28.466C99.5607 28.88 99.3927 29.345 99.3267 29.861Z" fill="white"/>
<defs>
<linearGradient id="paint0_linear_511_2" x1="9" y1="9" x2="163.22" y2="60.3283" gradientUnits="userSpaceOnUse">
<stop offset="0.08" stop-color="#FE8E01"/>
<stop offset="0.91" stop-color="#FEC300"/>
</linearGradient>
</defs>
</svg>
