<svg width="58" height="53" viewBox="0 0 58 53" fill="none" xmlns="http://www.w3.org/2000/svg">
<path d="M36.3396 13.9845H48.3171V16.8775H36.3396V13.9845ZM24.3381 25.431C26.9857 24.1698 28.3726 22.251 28.3726 19.2863C28.3726 13.4226 23.9899 12 18.9287 12H5V41.4322H19.3189C24.6863 41.4322 29.7235 38.8619 29.7235 32.8846C29.7235 29.1907 27.9704 26.4591 24.3381 25.431V25.431ZM11.4961 17.0209H17.5899C19.9373 17.0209 22.0447 17.6724 22.0447 20.3861C22.0447 22.8846 20.4056 23.8888 18.0822 23.8888H11.4961V17.0209ZM18.4304 36.4351H11.4901V28.3299H18.5685C21.4263 28.3299 23.2334 29.5194 23.2334 32.532C23.2334 35.4967 21.078 36.4351 18.4304 36.4351V36.4351ZM53 31.0855C53 24.7794 49.2957 19.5254 42.5955 19.5254C36.0814 19.5254 31.6507 24.4088 31.6507 30.8105C31.6507 37.4453 35.8473 42 42.5955 42C47.7047 42 51.0128 39.7107 52.6038 34.8273H47.4225C46.8582 36.6503 44.5647 37.6067 42.7816 37.6067C39.3355 37.6067 37.5343 35.5983 37.5343 32.1853H52.958C52.976 31.8326 53 31.462 53 31.0855V31.0855ZM37.5343 28.4913C37.7205 25.688 39.5996 23.9366 42.4094 23.9366C45.3632 23.9366 46.8402 25.6641 47.0983 28.4913H37.5343Z" fill="#0B0B0B"/>
</svg>
