<svg width="161" height="67" viewBox="0 0 161 67" fill="none" xmlns="http://www.w3.org/2000/svg">
<rect x="9" y="9" width="152" height="58" fill="black"/>
<rect width="152" height="58" fill="url(#paint0_linear_515_30)"/>
<path d="M35.912 35.234C35.06 35.234 34.259 35.066 33.509 34.73C32.759 34.388 32.099 33.92 31.529 33.326C30.965 32.726 30.521 32.03 30.197 31.238C29.879 30.446 29.72 29.6 29.72 28.7C29.72 27.8 29.879 26.954 30.197 26.162C30.521 25.37 30.965 24.677 31.529 24.083C32.099 23.483 32.759 23.015 33.509 22.679C34.259 22.337 35.06 22.166 35.912 22.166C36.932 22.166 37.871 22.403 38.729 22.877C39.587 23.351 40.298 23.981 40.862 24.767L39.521 25.487C39.101 24.935 38.57 24.497 37.928 24.173C37.292 23.843 36.62 23.678 35.912 23.678C35.258 23.678 34.646 23.81 34.076 24.074C33.512 24.338 33.017 24.701 32.591 25.163C32.165 25.625 31.832 26.159 31.592 26.765C31.352 27.371 31.232 28.016 31.232 28.7C31.232 29.39 31.352 30.038 31.592 30.644C31.838 31.25 32.174 31.784 32.6 32.246C33.032 32.708 33.53 33.071 34.094 33.335C34.664 33.593 35.27 33.722 35.912 33.722C36.644 33.722 37.322 33.557 37.946 33.227C38.576 32.891 39.101 32.453 39.521 31.913L40.862 32.642C40.298 33.428 39.587 34.058 38.729 34.532C37.871 35 36.932 35.234 35.912 35.234ZM46.1338 35.234C45.3058 35.234 44.5498 35.021 43.8658 34.595C43.1878 34.169 42.6448 33.599 42.2368 32.885C41.8348 32.165 41.6338 31.37 41.6338 30.5C41.6338 29.84 41.7508 29.225 41.9848 28.655C42.2188 28.079 42.5398 27.575 42.9478 27.143C43.3618 26.705 43.8418 26.363 44.3878 26.117C44.9338 25.871 45.5158 25.748 46.1338 25.748C46.9618 25.748 47.7148 25.961 48.3928 26.387C49.0768 26.813 49.6198 27.386 50.0218 28.106C50.4298 28.826 50.6338 29.624 50.6338 30.5C50.6338 31.154 50.5168 31.766 50.2828 32.336C50.0488 32.906 49.7248 33.41 49.3108 33.848C48.9028 34.28 48.4258 34.619 47.8798 34.865C47.3398 35.111 46.7578 35.234 46.1338 35.234ZM46.1338 33.722C46.6978 33.722 47.2048 33.575 47.6548 33.281C48.1108 32.981 48.4678 32.588 48.7258 32.102C48.9898 31.61 49.1218 31.076 49.1218 30.5C49.1218 29.912 48.9868 29.372 48.7168 28.88C48.4528 28.388 48.0958 27.995 47.6458 27.701C47.1958 27.407 46.6918 27.26 46.1338 27.26C45.5698 27.26 45.0628 27.41 44.6128 27.71C44.1628 28.004 43.8058 28.397 43.5418 28.889C43.2778 29.381 43.1458 29.918 43.1458 30.5C43.1458 31.1 43.2808 31.646 43.5508 32.138C43.8208 32.624 44.1838 33.011 44.6398 33.299C45.0958 33.581 45.5938 33.722 46.1338 33.722ZM60.079 29.402V35H58.567V29.735C58.567 29.279 58.456 28.865 58.234 28.493C58.012 28.121 57.715 27.827 57.343 27.611C56.971 27.389 56.557 27.278 56.101 27.278C55.651 27.278 55.237 27.389 54.859 27.611C54.487 27.827 54.19 28.121 53.968 28.493C53.746 28.865 53.635 29.279 53.635 29.735V35H52.123V26H53.635V27.125C53.953 26.705 54.355 26.372 54.841 26.126C55.327 25.874 55.855 25.748 56.425 25.748C57.097 25.748 57.709 25.913 58.261 26.243C58.819 26.567 59.26 27.005 59.584 27.557C59.914 28.109 60.079 28.724 60.079 29.402ZM66.5408 27.512H64.4978L64.4888 35H62.9768L62.9858 27.512H61.4378V26H62.9858L62.9768 23.174H64.4888L64.4978 26H66.5408V27.512ZM75.1617 26H76.6737V35H75.1617L75.0987 33.479C74.8167 34.001 74.4267 34.424 73.9287 34.748C73.4367 35.072 72.8487 35.234 72.1647 35.234C71.5047 35.234 70.8867 35.111 70.3107 34.865C69.7347 34.613 69.2247 34.268 68.7807 33.83C68.3427 33.386 68.0007 32.876 67.7547 32.3C67.5087 31.724 67.3857 31.103 67.3857 30.437C67.3857 29.795 67.5057 29.189 67.7457 28.619C67.9857 28.049 68.3187 27.551 68.7447 27.125C69.1767 26.693 69.6747 26.357 70.2387 26.117C70.8027 25.871 71.4087 25.748 72.0567 25.748C72.7647 25.748 73.3857 25.916 73.9197 26.252C74.4537 26.582 74.8857 27.011 75.2157 27.539L75.1617 26ZM72.1377 33.767C72.7317 33.767 73.2447 33.623 73.6767 33.335C74.1147 33.041 74.4507 32.645 74.6847 32.147C74.9247 31.649 75.0447 31.1 75.0447 30.5C75.0447 29.888 74.9247 29.336 74.6847 28.844C74.4447 28.346 74.1057 27.953 73.6677 27.665C73.2357 27.371 72.7257 27.224 72.1377 27.224C71.5437 27.224 71.0037 27.371 70.5177 27.665C70.0317 27.959 69.6447 28.355 69.3567 28.853C69.0747 29.345 68.9337 29.894 68.9337 30.5C68.9337 31.106 69.0807 31.658 69.3747 32.156C69.6687 32.648 70.0587 33.041 70.5447 33.335C71.0307 33.623 71.5617 33.767 72.1377 33.767ZM84.4978 32.624L85.8478 33.353C85.4398 33.923 84.9208 34.379 84.2908 34.721C83.6668 35.063 82.9888 35.234 82.2568 35.234C81.4288 35.234 80.6728 35.021 79.9888 34.595C79.3108 34.169 78.7678 33.599 78.3598 32.885C77.9578 32.165 77.7568 31.37 77.7568 30.5C77.7568 29.84 77.8738 29.225 78.1078 28.655C78.3418 28.079 78.6628 27.575 79.0708 27.143C79.4848 26.705 79.9648 26.363 80.5108 26.117C81.0568 25.871 81.6388 25.748 82.2568 25.748C82.9888 25.748 83.6668 25.919 84.2908 26.261C84.9208 26.603 85.4398 27.062 85.8478 27.638L84.4978 28.367C84.2098 28.013 83.8678 27.74 83.4718 27.548C83.0758 27.356 82.6708 27.26 82.2568 27.26C81.6988 27.26 81.1918 27.41 80.7358 27.71C80.2858 28.004 79.9288 28.397 79.6648 28.889C79.4008 29.381 79.2688 29.918 79.2688 30.5C79.2688 31.082 79.4008 31.619 79.6648 32.111C79.9348 32.597 80.2948 32.987 80.7448 33.281C81.2008 33.575 81.7048 33.722 82.2568 33.722C82.7008 33.722 83.1178 33.62 83.5078 33.416C83.8978 33.212 84.2278 32.948 84.4978 32.624ZM92.1346 27.512H90.0916L90.0826 35H88.5706L88.5796 27.512H87.0316V26H88.5796L88.5706 23.174H90.0826L90.0916 26H92.1346V27.512ZM98.0722 35L100.511 22.4H101.672L105.074 31.346L108.467 22.4H109.628L112.076 35H110.537L108.764 25.856L105.569 34.316H104.57L101.375 25.856L99.6112 35H98.0722ZM117.413 35.234C116.585 35.234 115.829 35.021 115.145 34.595C114.467 34.169 113.924 33.599 113.516 32.885C113.114 32.165 112.913 31.37 112.913 30.5C112.913 29.84 113.03 29.225 113.264 28.655C113.498 28.079 113.819 27.575 114.227 27.143C114.641 26.705 115.121 26.363 115.667 26.117C116.213 25.871 116.795 25.748 117.413 25.748C118.091 25.748 118.712 25.886 119.276 26.162C119.846 26.432 120.332 26.81 120.734 27.296C121.142 27.782 121.445 28.346 121.643 28.988C121.847 29.63 121.922 30.317 121.868 31.049H114.524C114.596 31.559 114.764 32.015 115.028 32.417C115.292 32.813 115.628 33.128 116.036 33.362C116.45 33.596 116.909 33.716 117.413 33.722C117.953 33.722 118.442 33.584 118.88 33.308C119.318 33.026 119.672 32.642 119.942 32.156L121.481 32.516C121.121 33.314 120.578 33.968 119.852 34.478C119.126 34.982 118.313 35.234 117.413 35.234ZM114.479 29.861H120.347C120.299 29.357 120.137 28.898 119.861 28.484C119.585 28.064 119.234 27.728 118.808 27.476C118.382 27.224 117.917 27.098 117.413 27.098C116.909 27.098 116.447 27.221 116.027 27.467C115.607 27.713 115.259 28.046 114.983 28.466C114.713 28.88 114.545 29.345 114.479 29.861Z" fill="white"/>
<defs>
<linearGradient id="paint0_linear_515_30" x1="0" y1="0" x2="152" y2="58" gradientUnits="userSpaceOnUse">
<stop stop-color="#FE8E01"/>
<stop offset="1" stop-color="#FEC300"/>
</linearGradient>
</defs>
</svg>
