<svg width="58" height="53" viewBox="0 0 58 53" fill="none" xmlns="http://www.w3.org/2000/svg">
<path d="M18.4032 15.3884C17.9164 14.1138 17.9359 12.6575 18.152 11.325C19.6402 11.7824 21.0378 12.5061 22.2804 13.4626C22.8257 13.8901 23.5403 14.0279 24.2063 13.8222C25.9153 13.2976 27.6901 13.0338 29.4739 13.0391C31.3453 13.0391 33.1232 13.3187 34.7376 13.8202C35.4036 14.0279 36.1182 13.8881 36.6615 13.4606C37.9036 12.5043 39.3005 11.7807 40.788 11.323C41.0041 12.6555 41.0217 14.1118 40.5387 15.3844C40.2466 16.1515 40.3927 17.0345 40.9438 17.6617C42.3536 19.2659 43.1053 21.1098 43.1053 23.0276C43.1053 27.2507 39.269 31.392 33.1076 32.6525C31.5653 32.9681 30.9636 34.9598 32.1437 36.1005C32.9012 36.8317 33.3686 37.8625 33.3686 39.0092V45.0023C33.3686 45.5321 33.5738 46.0402 33.9389 46.4149C34.3041 46.7895 34.7995 47 35.3159 47C35.8324 47 36.3277 46.7895 36.6929 46.4149C37.0581 46.0402 37.2633 45.5321 37.2633 45.0023V39.0092C37.2633 37.8705 37.0296 36.7877 36.6129 35.8069C42.488 33.7153 47 29.0067 47 23.0276C47 20.3367 46.0575 17.8635 44.4938 15.7919C44.9027 14.1538 44.8657 12.5037 44.7099 11.2371C44.5717 10.1024 44.3789 8.61614 43.5999 7.72916C42.4413 6.41268 40.5231 7.18778 39.16 7.66524C37.6977 8.17283 36.3065 8.87466 35.0219 9.75284C33.209 9.27821 31.3449 9.03993 29.4739 9.04365C27.5382 9.04365 25.6707 9.29336 23.922 9.75483C22.6374 8.87664 21.2462 8.17481 19.7839 7.66723C18.4208 7.18779 16.5007 6.41268 15.342 7.72916C14.5475 8.63212 14.382 10.0006 14.2398 11.1632L14.2301 11.2391C14.0743 12.5077 14.0392 14.1598 14.4482 15.7999C12.8903 17.8695 11.9478 20.3387 11.9478 23.0276C11.9478 29.0047 16.4598 33.7153 22.3349 35.8069C21.9097 36.8043 21.6883 37.8806 21.6845 38.9692L21.3574 39.0372C19.9611 39.2349 19.0673 39.0571 18.4597 38.7934C16.9797 38.1502 16.2164 36.53 15.2855 35.2915C14.7052 34.5224 13.8601 33.5615 12.5632 33.118C12.3205 33.0351 12.0642 33.002 11.8091 33.0207C11.554 33.0394 11.3049 33.1094 11.0762 33.2269C10.6142 33.464 10.263 33.8797 10.0998 34.3825C9.93656 34.8853 9.97474 35.434 10.2059 35.908C10.4371 36.3819 10.8423 36.7422 11.3324 36.9096C12.419 37.2812 13.1707 39.191 13.8601 40.038C14.5864 40.933 15.5523 41.8679 16.9369 42.4712C18.265 43.0505 19.8248 43.2563 21.6845 43.0226V45.0023C21.6845 45.5321 21.8897 46.0402 22.2549 46.4149C22.6201 46.7895 23.1154 47 23.6319 47C24.1483 47 24.6436 46.7895 25.0088 46.4149C25.374 46.0402 25.5792 45.5321 25.5792 45.0023V39.0092C25.5792 37.8625 26.0466 36.8317 26.8041 36.1005C27.9861 34.9579 27.3824 32.9681 25.8401 32.6525C19.6768 31.392 15.8425 27.2507 15.8425 23.0276C15.8425 21.1138 16.5922 19.2699 18.0001 17.6657C18.5512 17.0385 18.6953 16.1555 18.4032 15.3884Z" fill="black"/>
</svg>
