<svg width="58" height="53" viewBox="0 0 58 53" fill="none" xmlns="http://www.w3.org/2000/svg">
<path d="M38.6092 19.5519C39.8022 19.5519 40.7692 18.5849 40.7692 17.3919C40.7692 16.199 39.8022 15.2319 38.6092 15.2319C37.4163 15.2319 36.4492 16.199 36.4492 17.3919C36.4492 18.5849 37.4163 19.5519 38.6092 19.5519Z" fill="#0B0B0B"/>
<path d="M28.9997 17.7564C27.1716 17.7564 25.3845 18.2985 23.8645 19.3141C22.3445 20.3298 21.1598 21.7733 20.4603 23.4623C19.7607 25.1512 19.5776 27.0097 19.9343 28.8026C20.2909 30.5956 21.1712 32.2425 22.4639 33.5352C23.7565 34.8279 25.4035 35.7082 27.1965 36.0648C28.9894 36.4215 30.8479 36.2384 32.5368 35.5388C34.2258 34.8393 35.6693 33.6546 36.6849 32.1346C37.7006 30.6145 38.2427 28.8275 38.2427 26.9994C38.2427 24.548 37.2689 22.197 35.5355 20.4636C33.8021 18.7302 31.4511 17.7564 28.9997 17.7564ZM28.9997 32.9994C27.813 32.9994 26.6529 32.6475 25.6663 31.9882C24.6796 31.3289 23.9105 30.3919 23.4564 29.2955C23.0023 28.1992 22.8834 26.9928 23.115 25.8289C23.3465 24.665 23.9179 23.5959 24.757 22.7568C25.5961 21.9177 26.6652 21.3462 27.8291 21.1147C28.993 20.8832 30.1994 21.002 31.2958 21.4561C32.3921 21.9103 33.3292 22.6793 33.9885 23.666C34.6478 24.6527 34.9997 25.8127 34.9997 26.9994C34.9997 28.5907 34.3675 30.1168 33.2423 31.2421C32.1171 32.3673 30.591 32.9994 28.9997 32.9994Z" fill="#0B0B0B"/>
<path d="M29 12.243C33.806 12.243 34.376 12.261 36.2735 12.348C37.4148 12.3615 38.5452 12.5711 39.6155 12.9675C40.392 13.267 41.0972 13.7258 41.6857 14.3143C42.2742 14.9028 42.733 15.608 43.0325 16.3845C43.4289 17.4548 43.6385 18.5852 43.652 19.7265C43.739 21.624 43.757 22.194 43.757 27.0015C43.757 31.809 43.739 32.376 43.652 34.2735C43.6385 35.4148 43.4289 36.5452 43.0325 37.6155C42.733 38.392 42.2742 39.0972 41.6857 39.6857C41.0972 40.2742 40.392 40.733 39.6155 41.0325C38.5452 41.4289 37.4148 41.6385 36.2735 41.652C34.376 41.739 33.806 41.757 29 41.757C24.194 41.757 23.624 41.739 21.7265 41.652C20.5852 41.6385 19.4548 41.4289 18.3845 41.0325C17.608 40.733 16.9028 40.2742 16.3143 39.6857C15.7258 39.0972 15.267 38.392 14.9675 37.6155C14.5711 36.5452 14.3615 35.4148 14.348 34.2735C14.261 32.376 14.243 31.806 14.243 27C14.243 22.194 14.261 21.624 14.348 19.7265C14.3615 18.5852 14.5711 17.4548 14.9675 16.3845C15.267 15.608 15.7258 14.9028 16.3143 14.3143C16.9028 13.7258 17.608 13.267 18.3845 12.9675C19.4548 12.5711 20.5852 12.3615 21.7265 12.348C23.624 12.261 24.194 12.243 29 12.243ZM29 9C24.1115 9 23.498 9.021 21.578 9.108C20.0852 9.13814 18.6082 9.42115 17.21 9.945C16.0141 10.4074 14.928 11.1147 14.0213 12.0213C13.1147 12.928 12.4074 14.0141 11.945 15.21C11.421 16.6087 11.138 18.0862 11.108 19.5795C11.021 21.4995 11 22.11 11 27C11 31.89 11.021 32.502 11.108 34.422C11.1381 35.9148 11.4212 37.3918 11.945 38.79C12.4074 39.9859 13.1147 41.072 14.0213 41.9787C14.928 42.8853 16.0141 43.5926 17.21 44.055C18.6087 44.579 20.0862 44.862 21.5795 44.892C23.4995 44.979 24.1115 45 29 45C33.8885 45 34.502 44.979 36.422 44.892C37.9153 44.862 39.3928 44.579 40.7915 44.055C41.9874 43.5926 43.0735 42.8853 43.9802 41.9787C44.8868 41.072 45.5941 39.9859 46.0565 38.79C46.58 37.3912 46.8625 35.9138 46.892 34.4205C46.979 32.5005 47 31.89 47 27C47 22.11 46.979 21.498 46.892 19.578C46.8619 18.0852 46.5788 16.6082 46.055 15.21C45.5926 14.0141 44.8853 12.928 43.9787 12.0213C43.072 11.1147 41.9859 10.4074 40.79 9.945C39.3912 9.4215 37.9138 9.13899 36.4205 9.1095C34.5005 9.0195 33.89 9 29 9Z" fill="#0B0B0B"/>
</svg>
