<svg width="58" height="53" viewBox="0 0 58 53" fill="none" xmlns="http://www.w3.org/2000/svg">
<path d="M17.3073 45V18.6868H8.51853V45H17.3073ZM12.9141 15.092C15.9789 15.092 17.8866 13.0714 17.8866 10.5464C17.8295 7.96447 15.979 6 12.9722 6C9.96593 6 8 7.96451 8 10.5464C8 13.0716 9.90722 15.092 12.8567 15.092H12.9138H12.9141ZM22.1719 45H30.9607V30.3054C30.9607 29.519 31.0178 28.7334 31.2499 28.1712C31.8852 26.5999 33.3313 24.9725 35.7592 24.9725C38.9395 24.9725 40.2118 27.3855 40.2118 30.9228V44.9998H49V29.912C49 21.8297 44.6641 18.069 38.8816 18.069C34.1404 18.069 32.0587 20.7063 30.9022 22.5025H30.9609V18.6862H22.1721C22.2874 21.1553 22.1721 44.9995 22.1721 44.9995L22.1719 45Z" fill="#0B0B0B"/>
</svg>
