<svg width="161" height="67" viewBox="0 0 161 67" fill="none" xmlns="http://www.w3.org/2000/svg">
<rect x="9" y="9" width="152" height="58" fill="white"/>
<rect width="152" height="58" fill="url(#paint0_linear_515_22)"/>
<path d="M30.08 35V22.4H31.592V33.488H37.235V35H30.08ZM42.3017 35.234C41.4737 35.234 40.7177 35.021 40.0337 34.595C39.3557 34.169 38.8127 33.599 38.4047 32.885C38.0027 32.165 37.8017 31.37 37.8017 30.5C37.8017 29.84 37.9187 29.225 38.1527 28.655C38.3867 28.079 38.7077 27.575 39.1157 27.143C39.5297 26.705 40.0097 26.363 40.5557 26.117C41.1017 25.871 41.6837 25.748 42.3017 25.748C43.1297 25.748 43.8827 25.961 44.5607 26.387C45.2447 26.813 45.7877 27.386 46.1897 28.106C46.5977 28.826 46.8017 29.624 46.8017 30.5C46.8017 31.154 46.6847 31.766 46.4507 32.336C46.2167 32.906 45.8927 33.41 45.4787 33.848C45.0707 34.28 44.5937 34.619 44.0477 34.865C43.5077 35.111 42.9257 35.234 42.3017 35.234ZM42.3017 33.722C42.8657 33.722 43.3727 33.575 43.8227 33.281C44.2787 32.981 44.6357 32.588 44.8937 32.102C45.1577 31.61 45.2897 31.076 45.2897 30.5C45.2897 29.912 45.1547 29.372 44.8847 28.88C44.6207 28.388 44.2637 27.995 43.8137 27.701C43.3637 27.407 42.8597 27.26 42.3017 27.26C41.7377 27.26 41.2307 27.41 40.7807 27.71C40.3307 28.004 39.9737 28.397 39.7097 28.889C39.4457 29.381 39.3137 29.918 39.3137 30.5C39.3137 31.1 39.4487 31.646 39.7187 32.138C39.9887 32.624 40.3517 33.011 40.8077 33.299C41.2637 33.581 41.7617 33.722 42.3017 33.722ZM55.4742 26H56.9862V35H55.4742L55.4112 33.479C55.1292 34.001 54.7392 34.424 54.2412 34.748C53.7492 35.072 53.1612 35.234 52.4772 35.234C51.8172 35.234 51.1992 35.111 50.6232 34.865C50.0472 34.613 49.5372 34.268 49.0932 33.83C48.6552 33.386 48.3132 32.876 48.0672 32.3C47.8212 31.724 47.6982 31.103 47.6982 30.437C47.6982 29.795 47.8182 29.189 48.0582 28.619C48.2982 28.049 48.6312 27.551 49.0572 27.125C49.4892 26.693 49.9872 26.357 50.5512 26.117C51.1152 25.871 51.7212 25.748 52.3692 25.748C53.0772 25.748 53.6982 25.916 54.2322 26.252C54.7662 26.582 55.1982 27.011 55.5282 27.539L55.4742 26ZM52.4502 33.767C53.0442 33.767 53.5572 33.623 53.9892 33.335C54.4272 33.041 54.7632 32.645 54.9972 32.147C55.2372 31.649 55.3572 31.1 55.3572 30.5C55.3572 29.888 55.2372 29.336 54.9972 28.844C54.7572 28.346 54.4182 27.953 53.9802 27.665C53.5482 27.371 53.0382 27.224 52.4502 27.224C51.8562 27.224 51.3162 27.371 50.8302 27.665C50.3442 27.959 49.9572 28.355 49.6692 28.853C49.3872 29.345 49.2462 29.894 49.2462 30.5C49.2462 31.106 49.3932 31.658 49.6872 32.156C49.9812 32.648 50.3712 33.041 50.8572 33.335C51.3432 33.623 51.8742 33.767 52.4502 33.767ZM65.8543 21.5H67.3663V35H65.8543V33.47C65.5483 33.998 65.1373 34.424 64.6213 34.748C64.1053 35.072 63.4993 35.234 62.8033 35.234C62.1493 35.234 61.5373 35.111 60.9673 34.865C60.3973 34.619 59.8933 34.28 59.4553 33.848C59.0233 33.41 58.6843 32.906 58.4383 32.336C58.1923 31.766 58.0693 31.154 58.0693 30.5C58.0693 29.846 58.1923 29.234 58.4383 28.664C58.6843 28.088 59.0233 27.584 59.4553 27.152C59.8933 26.714 60.3973 26.372 60.9673 26.126C61.5373 25.88 62.1493 25.757 62.8033 25.757C63.4993 25.757 64.1053 25.919 64.6213 26.243C65.1373 26.567 65.5483 26.993 65.8543 27.521V21.5ZM62.8213 33.767C63.4153 33.767 63.9283 33.623 64.3603 33.335C64.7983 33.041 65.1343 32.645 65.3683 32.147C65.6083 31.649 65.7283 31.1 65.7283 30.5C65.7283 29.888 65.6083 29.336 65.3683 28.844C65.1283 28.346 64.7893 27.953 64.3513 27.665C63.9193 27.371 63.4093 27.224 62.8213 27.224C62.2273 27.224 61.6873 27.371 61.2013 27.665C60.7213 27.959 60.3373 28.355 60.0493 28.853C59.7613 29.345 59.6173 29.894 59.6173 30.5C59.6173 31.106 59.7643 31.658 60.0583 32.156C60.3523 32.648 60.7423 33.041 61.2283 33.335C61.7143 33.623 62.2453 33.767 62.8213 33.767ZM73.8495 35L76.2885 22.4H77.4495L80.8515 31.346L84.2445 22.4H85.4055L87.8535 35H86.3145L84.5415 25.856L81.3465 34.316H80.3475L77.1525 25.856L75.3885 35H73.8495ZM93.1904 35.234C92.3624 35.234 91.6064 35.021 90.9224 34.595C90.2444 34.169 89.7014 33.599 89.2934 32.885C88.8914 32.165 88.6904 31.37 88.6904 30.5C88.6904 29.84 88.8074 29.225 89.0414 28.655C89.2754 28.079 89.5964 27.575 90.0044 27.143C90.4184 26.705 90.8984 26.363 91.4444 26.117C91.9904 25.871 92.5724 25.748 93.1904 25.748C94.0184 25.748 94.7714 25.961 95.4494 26.387C96.1334 26.813 96.6764 27.386 97.0784 28.106C97.4864 28.826 97.6904 29.624 97.6904 30.5C97.6904 31.154 97.5734 31.766 97.3394 32.336C97.1054 32.906 96.7814 33.41 96.3674 33.848C95.9594 34.28 95.4824 34.619 94.9364 34.865C94.3964 35.111 93.8144 35.234 93.1904 35.234ZM93.1904 33.722C93.7544 33.722 94.2614 33.575 94.7114 33.281C95.1674 32.981 95.5244 32.588 95.7824 32.102C96.0464 31.61 96.1784 31.076 96.1784 30.5C96.1784 29.912 96.0434 29.372 95.7734 28.88C95.5094 28.388 95.1524 27.995 94.7024 27.701C94.2524 27.407 93.7484 27.26 93.1904 27.26C92.6264 27.26 92.1194 27.41 91.6694 27.71C91.2194 28.004 90.8624 28.397 90.5984 28.889C90.3344 29.381 90.2024 29.918 90.2024 30.5C90.2024 31.1 90.3374 31.646 90.6074 32.138C90.8774 32.624 91.2404 33.011 91.6964 33.299C92.1524 33.581 92.6504 33.722 93.1904 33.722ZM99.1796 35V26H100.692V27.125C101.01 26.705 101.412 26.372 101.898 26.126C102.384 25.874 102.912 25.748 103.482 25.748C103.83 25.748 104.166 25.793 104.49 25.883L103.878 27.395C103.632 27.317 103.392 27.278 103.158 27.278C102.708 27.278 102.294 27.389 101.916 27.611C101.544 27.827 101.247 28.121 101.025 28.493C100.803 28.865 100.692 29.279 100.692 29.735V35H99.1796ZM109.099 35.234C108.271 35.234 107.515 35.021 106.831 34.595C106.153 34.169 105.61 33.599 105.202 32.885C104.8 32.165 104.599 31.37 104.599 30.5C104.599 29.84 104.716 29.225 104.95 28.655C105.184 28.079 105.505 27.575 105.913 27.143C106.327 26.705 106.807 26.363 107.353 26.117C107.899 25.871 108.481 25.748 109.099 25.748C109.777 25.748 110.398 25.886 110.962 26.162C111.532 26.432 112.018 26.81 112.42 27.296C112.828 27.782 113.131 28.346 113.329 28.988C113.533 29.63 113.608 30.317 113.554 31.049H106.21C106.282 31.559 106.45 32.015 106.714 32.417C106.978 32.813 107.314 33.128 107.722 33.362C108.136 33.596 108.595 33.716 109.099 33.722C109.639 33.722 110.128 33.584 110.566 33.308C111.004 33.026 111.358 32.642 111.628 32.156L113.167 32.516C112.807 33.314 112.264 33.968 111.538 34.478C110.812 34.982 109.999 35.234 109.099 35.234ZM106.165 29.861H112.033C111.985 29.357 111.823 28.898 111.547 28.484C111.271 28.064 110.92 27.728 110.494 27.476C110.068 27.224 109.603 27.098 109.099 27.098C108.595 27.098 108.133 27.221 107.713 27.467C107.293 27.713 106.945 28.046 106.669 28.466C106.399 28.88 106.231 29.345 106.165 29.861Z" fill="black"/>
<defs>
<linearGradient id="paint0_linear_515_22" x1="-2.5" y1="1.8236e-08" x2="152" y2="58" gradientUnits="userSpaceOnUse">
<stop stop-color="#FE8E01"/>
<stop offset="1" stop-color="#FEC300"/>
</linearGradient>
</defs>
</svg>
