<svg width="41" height="66" viewBox="0 0 41 66" fill="none" xmlns="http://www.w3.org/2000/svg">
<path d="M31.0322 3.47181C31.2205 3.61302 31.3147 3.76993 31.3147 3.94253C31.3147 4.24066 31.1264 4.38972 30.7498 4.38972C30.6086 4.38972 30.4595 4.35049 30.3026 4.27204C29.5651 3.91115 29.016 3.7307 28.6551 3.7307C27.6822 3.7307 26.6074 4.68785 25.4306 6.60213C21.1156 13.6473 17.9696 23.0304 15.9926 34.7515C16.4005 34.3592 16.9497 33.7473 17.6401 32.9157C18.0481 32.4292 18.3462 32.186 18.5345 32.186C18.9581 32.186 18.9974 32.4292 18.6522 32.9157C17.1458 35.0025 16.1495 37.2542 15.6631 39.6706C15.4748 40.2511 15.2394 40.5414 14.957 40.5414C14.8158 40.5414 14.6432 40.4708 14.4392 40.3296C13.6546 39.7961 13.2153 39.4823 13.1211 39.3881C12.8073 39.09 12.6504 38.6899 12.6504 38.1878C12.6504 37.921 12.6897 37.6072 12.7681 37.2463C13.4428 33.6217 13.9998 30.9229 14.4392 29.1499C12.9015 31.3623 11.1598 33.5747 9.21413 35.7871C7.28416 37.9838 5.87983 39.3724 5.00114 39.953C4.32644 40.408 3.82433 40.6356 3.49482 40.6356C3.21239 40.6356 2.78089 40.408 2.20033 39.953C1.18042 39.3254 0.670471 38.5957 0.670471 37.7641C0.670471 37.6229 0.686162 37.466 0.717544 37.2934C1.04705 34.9555 2.09049 32.2488 3.84787 29.1734C5.62093 26.0823 7.64505 23.4855 9.92022 21.3829C10.6577 20.6925 11.3167 20.3551 11.8973 20.3708C12.5092 20.4022 13.5997 21.1475 15.1688 22.6068C15.31 22.7323 15.3806 22.8657 15.3806 23.0069C15.3806 23.2579 15.2159 23.3835 14.8864 23.3835C14.7765 23.3835 14.6589 23.3599 14.5333 23.3129C13.435 22.8421 12.5406 22.8578 11.8502 23.3599C10.3753 24.4583 8.75125 26.3647 6.97819 29.0793C4.92269 32.2174 3.71449 35.0418 3.3536 37.5523C3.27515 38.1486 3.43206 38.4467 3.82433 38.4467C4.34213 38.4467 4.97761 38.0779 5.73077 37.3405C7.47245 35.6302 9.3475 33.4805 11.3559 30.8915C13.4114 28.2084 14.7295 26.1843 15.31 24.8192C15.6395 24.066 15.8984 23.3442 16.0867 22.6539C17.7186 16.8796 19.5387 11.9449 21.5471 7.84955C23.1162 4.64862 24.497 2.49897 25.6895 1.40062C26.1289 0.976963 26.5525 0.765137 26.9605 0.765137C27.3998 0.765137 27.9647 1.02404 28.6551 1.54183C29.4396 2.18516 30.232 2.82848 31.0322 3.47181Z" fill="#FE8E01"/>
<path d="M39.4347 25.5017C39.2464 28.1535 38.5481 31.0014 37.34 34.0454C36.2102 36.8854 35.0962 38.8233 33.9978 39.8589C33.3702 40.4394 32.7347 40.7297 32.0914 40.7297C31.3696 40.7297 30.1692 40.1491 28.4903 38.988C28.1608 38.7683 27.9961 38.5408 27.9961 38.3055C27.9961 38.0073 28.2079 37.8583 28.6315 37.8583C28.8041 37.8583 29.0552 37.9132 29.3847 38.023C29.7142 38.1329 29.981 38.1878 30.1849 38.1878C31.3304 38.1878 32.3581 37.4582 33.2682 35.9989C34.037 34.7436 34.7667 33.0569 35.4571 30.9386C36.2887 28.3026 36.6496 26.0352 36.5397 24.1366C36.4926 23.2266 36.1867 22.7715 35.6218 22.7715C35.1197 22.7715 34.5078 23.1167 33.786 23.8071C28.7021 28.6713 25.1246 34.4847 23.0534 41.2475C21.8766 45.0917 21.0921 48.6536 20.6998 51.933C20.6841 52.0428 20.4723 54.7651 20.0643 60.1C20.0016 60.8689 19.8133 61.2533 19.4995 61.2533C19.17 61.2533 18.5816 60.8689 17.7343 60.1C17.1223 59.5352 16.8869 58.8448 17.0282 58.0288C17.7186 50.2148 19.6093 41.5142 22.7004 31.9271C25.1325 24.4269 27.0625 19.5628 28.4903 17.3347C29.3376 16.0323 30.0908 15.3968 30.7498 15.4282C31.4088 15.4439 32.6641 16.0323 34.5156 17.1934C34.7667 17.3503 34.8922 17.5151 34.8922 17.6877C34.8922 17.9231 34.7039 18.0407 34.3273 18.0407C34.2332 18.0407 34.0763 18.0251 33.8566 17.9937C33.6369 17.9466 33.4722 17.9231 33.3623 17.9231C32.3738 17.9231 31.3461 18.7625 30.2791 20.4414C29.6514 21.3986 28.8591 23.0069 27.9019 25.2664C26.9448 27.5259 26.2544 29.3852 25.8307 30.8445C28.1373 27.0787 30.8204 23.8464 33.8801 21.1475C34.3509 20.7396 34.7745 20.5356 35.1511 20.5356C35.3237 20.5356 35.7552 20.771 36.4456 21.2417C38.5795 21.9948 39.5759 23.4149 39.4347 25.5017Z" fill="#FE8E01"/>
</svg>
