<svg width="161" height="67" viewBox="0 0 161 67" fill="none" xmlns="http://www.w3.org/2000/svg">
<rect x="9" y="9" width="152" height="58" fill="url(#paint0_linear_511_10)"/>
<rect width="152" height="58" fill="black"/>
<path d="M30.08 35L32.519 22.4H33.68L37.082 31.346L40.475 22.4H41.636L44.084 35H42.545L40.772 25.856L37.577 34.316H36.578L33.383 25.856L31.619 35H30.08ZM49.4209 35.234C48.5929 35.234 47.8369 35.021 47.1529 34.595C46.4749 34.169 45.9319 33.599 45.5239 32.885C45.1219 32.165 44.9209 31.37 44.9209 30.5C44.9209 29.84 45.0379 29.225 45.2719 28.655C45.5059 28.079 45.8269 27.575 46.2349 27.143C46.6489 26.705 47.1289 26.363 47.6749 26.117C48.2209 25.871 48.8029 25.748 49.4209 25.748C50.2489 25.748 51.0019 25.961 51.6799 26.387C52.3639 26.813 52.9069 27.386 53.3089 28.106C53.7169 28.826 53.9209 29.624 53.9209 30.5C53.9209 31.154 53.8039 31.766 53.5699 32.336C53.3359 32.906 53.0119 33.41 52.5979 33.848C52.1899 34.28 51.7129 34.619 51.1669 34.865C50.6269 35.111 50.0449 35.234 49.4209 35.234ZM49.4209 33.722C49.9849 33.722 50.4919 33.575 50.9419 33.281C51.3979 32.981 51.7549 32.588 52.0129 32.102C52.2769 31.61 52.4089 31.076 52.4089 30.5C52.4089 29.912 52.2739 29.372 52.0039 28.88C51.7399 28.388 51.3829 27.995 50.9329 27.701C50.4829 27.407 49.9789 27.26 49.4209 27.26C48.8569 27.26 48.3499 27.41 47.8999 27.71C47.4499 28.004 47.0929 28.397 46.8289 28.889C46.5649 29.381 46.4329 29.918 46.4329 30.5C46.4329 31.1 46.5679 31.646 46.8379 32.138C47.1079 32.624 47.4709 33.011 47.9269 33.299C48.3829 33.581 48.8809 33.722 49.4209 33.722ZM55.4101 35V26H56.9221V27.125C57.2401 26.705 57.6421 26.372 58.1281 26.126C58.6141 25.874 59.1421 25.748 59.7121 25.748C60.0601 25.748 60.3961 25.793 60.7201 25.883L60.1081 27.395C59.8621 27.317 59.6221 27.278 59.3881 27.278C58.9381 27.278 58.5241 27.389 58.1461 27.611C57.7741 27.827 57.4771 28.121 57.2551 28.493C57.0331 28.865 56.9221 29.279 56.9221 29.735V35H55.4101ZM65.3291 35.234C64.5011 35.234 63.7451 35.021 63.0611 34.595C62.3831 34.169 61.8401 33.599 61.4321 32.885C61.0301 32.165 60.8291 31.37 60.8291 30.5C60.8291 29.84 60.9461 29.225 61.1801 28.655C61.4141 28.079 61.7351 27.575 62.1431 27.143C62.5571 26.705 63.0371 26.363 63.5831 26.117C64.1291 25.871 64.7111 25.748 65.3291 25.748C66.0071 25.748 66.6281 25.886 67.1921 26.162C67.7621 26.432 68.2481 26.81 68.6501 27.296C69.0581 27.782 69.3611 28.346 69.5591 28.988C69.7631 29.63 69.8381 30.317 69.7841 31.049H62.4401C62.5121 31.559 62.6801 32.015 62.9441 32.417C63.2081 32.813 63.5441 33.128 63.9521 33.362C64.3661 33.596 64.8251 33.716 65.3291 33.722C65.8691 33.722 66.3581 33.584 66.7961 33.308C67.2341 33.026 67.5881 32.642 67.8581 32.156L69.3971 32.516C69.0371 33.314 68.4941 33.968 67.7681 34.478C67.0421 34.982 66.2291 35.234 65.3291 35.234ZM62.3951 29.861H68.2631C68.2151 29.357 68.0531 28.898 67.7771 28.484C67.5011 28.064 67.1501 27.728 66.7241 27.476C66.2981 27.224 65.8331 27.098 65.3291 27.098C64.8251 27.098 64.3631 27.221 63.9431 27.467C63.5231 27.713 63.1751 28.046 62.8991 28.466C62.6291 28.88 62.4611 29.345 62.3951 29.861ZM79.969 22.4H81.796L86.377 35H84.775L83.839 32.426H77.926L76.999 35H75.388L79.969 22.4ZM78.484 30.914H83.281L80.878 24.335L78.484 30.914ZM92.5715 25.748C93.4475 25.748 94.2425 25.961 94.9565 26.387C95.6765 26.813 96.2495 27.386 96.6755 28.106C97.1015 28.82 97.3145 29.615 97.3145 30.491C97.3145 31.145 97.1915 31.76 96.9455 32.336C96.6995 32.906 96.3575 33.41 95.9195 33.848C95.4875 34.28 94.9835 34.619 94.4075 34.865C93.8375 35.111 93.2255 35.234 92.5715 35.234C91.8755 35.234 91.2695 35.072 90.7535 34.748C90.2435 34.418 89.8355 33.989 89.5295 33.461V35H88.0175V21.5H89.5295V27.521C89.8355 26.993 90.2435 26.567 90.7535 26.243C91.2695 25.913 91.8755 25.748 92.5715 25.748ZM92.5535 33.758C93.1475 33.758 93.6875 33.611 94.1735 33.317C94.6595 33.023 95.0465 32.63 95.3345 32.138C95.6225 31.64 95.7665 31.091 95.7665 30.491C95.7665 29.879 95.6195 29.327 95.3255 28.835C95.0315 28.337 94.6415 27.944 94.1555 27.656C93.6695 27.362 93.1355 27.215 92.5535 27.215C91.9655 27.215 91.4525 27.362 91.0145 27.656C90.5825 27.95 90.2465 28.346 90.0065 28.844C89.7725 29.342 89.6555 29.891 89.6555 30.491C89.6555 31.097 89.7725 31.649 90.0065 32.147C90.2465 32.639 90.5855 33.032 91.0235 33.326C91.4615 33.614 91.9715 33.758 92.5535 33.758ZM102.718 35.234C101.89 35.234 101.134 35.021 100.45 34.595C99.7717 34.169 99.2287 33.599 98.8207 32.885C98.4187 32.165 98.2177 31.37 98.2177 30.5C98.2177 29.84 98.3347 29.225 98.5687 28.655C98.8027 28.079 99.1237 27.575 99.5317 27.143C99.9457 26.705 100.426 26.363 100.972 26.117C101.518 25.871 102.1 25.748 102.718 25.748C103.546 25.748 104.299 25.961 104.977 26.387C105.661 26.813 106.204 27.386 106.606 28.106C107.014 28.826 107.218 29.624 107.218 30.5C107.218 31.154 107.101 31.766 106.867 32.336C106.633 32.906 106.309 33.41 105.895 33.848C105.487 34.28 105.01 34.619 104.464 34.865C103.924 35.111 103.342 35.234 102.718 35.234ZM102.718 33.722C103.282 33.722 103.789 33.575 104.239 33.281C104.695 32.981 105.052 32.588 105.31 32.102C105.574 31.61 105.706 31.076 105.706 30.5C105.706 29.912 105.571 29.372 105.301 28.88C105.037 28.388 104.68 27.995 104.23 27.701C103.78 27.407 103.276 27.26 102.718 27.26C102.154 27.26 101.647 27.41 101.197 27.71C100.747 28.004 100.39 28.397 100.126 28.889C99.8617 29.381 99.7297 29.918 99.7297 30.5C99.7297 31.1 99.8647 31.646 100.135 32.138C100.405 32.624 100.768 33.011 101.224 33.299C101.68 33.581 102.178 33.722 102.718 33.722ZM108.224 31.58V26H109.736V31.247C109.736 31.703 109.847 32.117 110.069 32.489C110.291 32.861 110.588 33.158 110.96 33.38C111.338 33.596 111.752 33.704 112.202 33.704C112.658 33.704 113.069 33.596 113.435 33.38C113.807 33.158 114.104 32.861 114.326 32.489C114.548 32.117 114.659 31.703 114.659 31.247V26H116.171L116.18 35H114.668L114.659 33.857C114.341 34.277 113.939 34.613 113.453 34.865C112.967 35.111 112.442 35.234 111.878 35.234C111.206 35.234 110.591 35.072 110.033 34.748C109.481 34.418 109.04 33.977 108.71 33.425C108.386 32.873 108.224 32.258 108.224 31.58ZM122.65 27.512H120.607L120.598 35H119.086L119.095 27.512H117.547V26H119.095L119.086 23.174H120.598L120.607 26H122.65V27.512Z" fill="white"/>
<defs>
<linearGradient id="paint0_linear_511_10" x1="9" y1="9" x2="163.22" y2="60.3283" gradientUnits="userSpaceOnUse">
<stop offset="0.08" stop-color="#FE8E01"/>
<stop offset="0.91" stop-color="#FEC300"/>
</linearGradient>
</defs>
</svg>
