<svg width="161" height="67" viewBox="0 0 161 67" fill="none" xmlns="http://www.w3.org/2000/svg">
<rect x="9" y="9" width="152" height="58" fill="url(#paint0_linear_511_14)"/>
<rect width="152" height="58" fill="black"/>
<path d="M34.076 35L29.504 22.4H31.106L35.012 33.155L38.927 22.4H40.52L35.948 35H34.076ZM41.453 26H42.965V35H41.453V26ZM42.227 24.533C41.987 24.533 41.786 24.455 41.624 24.299C41.462 24.143 41.381 23.948 41.381 23.714C41.381 23.48 41.462 23.285 41.624 23.129C41.786 22.973 41.984 22.895 42.218 22.895C42.452 22.895 42.65 22.973 42.812 23.129C42.974 23.285 43.055 23.48 43.055 23.714C43.055 23.948 42.974 24.143 42.812 24.299C42.656 24.455 42.461 24.533 42.227 24.533ZM48.9638 35.234C48.1358 35.234 47.3798 35.021 46.6958 34.595C46.0178 34.169 45.4748 33.599 45.0668 32.885C44.6648 32.165 44.4638 31.37 44.4638 30.5C44.4638 29.84 44.5808 29.225 44.8148 28.655C45.0488 28.079 45.3698 27.575 45.7778 27.143C46.1918 26.705 46.6718 26.363 47.2178 26.117C47.7638 25.871 48.3458 25.748 48.9638 25.748C49.6418 25.748 50.2628 25.886 50.8268 26.162C51.3968 26.432 51.8828 26.81 52.2848 27.296C52.6928 27.782 52.9958 28.346 53.1938 28.988C53.3978 29.63 53.4728 30.317 53.4188 31.049H46.0748C46.1468 31.559 46.3148 32.015 46.5788 32.417C46.8428 32.813 47.1788 33.128 47.5868 33.362C48.0008 33.596 48.4598 33.716 48.9638 33.722C49.5038 33.722 49.9928 33.584 50.4308 33.308C50.8688 33.026 51.2228 32.642 51.4928 32.156L53.0318 32.516C52.6718 33.314 52.1288 33.968 51.4028 34.478C50.6768 34.982 49.8638 35.234 48.9638 35.234ZM46.0298 29.861H51.8978C51.8498 29.357 51.6878 28.898 51.4118 28.484C51.1358 28.064 50.7848 27.728 50.3588 27.476C49.9328 27.224 49.4678 27.098 48.9638 27.098C48.4598 27.098 47.9978 27.221 47.5778 27.467C47.1578 27.713 46.8098 28.046 46.5338 28.466C46.2638 28.88 46.0958 29.345 46.0298 29.861ZM58.5537 35H57.0238L54.0088 26H55.4848L57.8068 32.867L60.1018 26H61.6588L63.9628 32.867L66.2578 26H67.7518L64.7368 35H63.1978L60.8668 28.07L58.5537 35ZM77.9123 22.4H79.7393L84.3203 35H82.7183L81.7823 32.426H75.8693L74.9423 35H73.3313L77.9123 22.4ZM76.4273 30.914H81.2243L78.8213 24.335L76.4273 30.914ZM85.9609 35V21.5H87.4729V35H85.9609ZM89.6347 35V21.5H91.1467V35H89.6347Z" fill="white"/>
<defs>
<linearGradient id="paint0_linear_511_14" x1="9" y1="9" x2="163.22" y2="60.3283" gradientUnits="userSpaceOnUse">
<stop offset="0.08" stop-color="#FE8E01"/>
<stop offset="0.91" stop-color="#FEC300"/>
</linearGradient>
</defs>
</svg>
